<svg width="130" height="150" viewBox="0 0 130 150" fill="none" xmlns="http://www.w3.org/2000/svg">
<g clip-path="url(#clip0_23_5377)">
<path d="M112.023 40.7656C108.025 34.4751 98.7968 34.6698 92.4811 36.4627C84.2132 38.8088 76.6448 43.6445 70.1098 49.0233C62.7084 55.1192 55.8706 61.8708 49.6488 69.1244C52.7702 57.5473 54.7849 45.6526 55.1712 33.8092C55.6305 19.3737 50.0351 0.717152 32.3092 0.0204778C17.1619 -0.573744 5.36553 12.5094 2.29639 25.9306C-1.82711 43.9929 0.135468 63.6739 3.98755 81.603C8.58082 102.975 16.5668 123.455 24.699 143.74C24.1666 144.048 23.6342 144.355 23.1018 144.662C22.1414 145.205 17.2036 147.951 18.1432 149.549C19.0618 151.106 24.2188 148.187 24.9391 147.777C25.8995 147.234 26.8495 146.67 27.7995 146.107C30.8791 145.369 36.1091 142.572 37.1948 140.41C60.9024 125.432 82.8039 106.847 97.8364 83.3549C102.033 76.798 105.666 69.862 108.568 62.6699C110.969 56.7174 115.928 46.9333 112.013 40.7759L112.023 40.7656ZM98.6716 63.1514C97.398 66.8294 95.926 70.4357 94.2766 73.9601C82.0523 100.116 60.4743 120.75 36.2657 136.62C24.0831 106.273 11.7439 74.5543 12.0049 41.5033C12.0675 34.2292 12.5582 26.7605 14.2702 19.6605C15.0114 16.5767 16.0136 13.4519 17.6003 10.6857C19.4898 7.38678 20.492 6.90525 24.3754 7.60193C40.5876 10.5116 44.0534 28.5021 43.2183 41.9848C42.0699 60.4159 37.5289 78.7139 30.8373 95.9258C30.1066 97.8007 35.1174 95.9258 35.3157 95.8336C37.5811 94.891 41.0051 93.2518 42.2787 91.0388C51.6636 74.708 63.8462 59.0533 78.8892 47.3328C82.7621 44.3207 86.9483 42.0463 92.074 42.7942C96.187 43.3884 100.467 45.837 101.365 50.0888C102.252 54.2483 100.008 59.289 98.6611 63.1617L98.6716 63.1514Z" fill="#FEF752"/>
<path d="M98.2437 4.49763C96.0411 5.5324 92.5961 7.24334 91.6566 9.6817C90.1429 13.5954 88.8902 17.5808 87.8984 21.6583C87.3869 23.7484 92.617 21.4944 93.1285 21.2485C95.0598 20.3367 99.1415 18.4311 99.7157 16.0645C100.707 11.9869 101.95 8.00149 103.474 4.08782C104.257 2.07976 98.5987 4.33371 98.2437 4.49763Z" fill="#FEF752"/>
<path d="M129.926 13.1241C129.551 12.4889 127.974 12.8885 127.557 13.0012C124.738 13.7593 121.199 15.501 119.247 17.714C118.224 18.8717 117.18 19.9884 116.084 21.0744C115.593 21.5559 115.103 22.0272 114.602 22.4985C114.288 22.7853 113.975 23.0722 113.652 23.3591C113.579 23.4205 113.474 23.5025 113.338 23.6254C112.618 24.2402 109.539 27.2215 112.482 26.9551C115.332 26.699 118.736 24.7627 120.855 22.9595C123.694 20.5416 126.388 18.0008 128.851 15.2039C129.144 14.876 130.313 13.7901 129.926 13.1241Z" fill="#FEF752"/>
</g>
<defs>
<clipPath id="clip0_23_5377">
<rect width="130" height="150" fill="white"/>
</clipPath>
</defs>
</svg>
